<?xml version="1.0" encoding="utf-8"?>
<svg data-name="Calque 1" viewBox="0 0 200 250" x="0px" y="0px" xmlns="http://www.w3.org/2000/svg">
  <polygon points="92.513 149.134 92.513 157.33 100.44 157.33 108.369 157.33 108.369 149.134 100.44 149.134 92.513 149.134" style="fill: rgb(213, 190, 111);"/>
  <rect x="69.608" y="117.259" width="7.929" height="8.196" style="fill: rgb(213, 190, 111);"/>
  <rect x="69.608" y="77.188" width="7.929" height="8.196" style="fill: rgb(213, 190, 111);"/>
  <rect x="123.346" y="117.259" width="7.929" height="8.196" style="fill: rgb(213, 190, 111);"/>
  <rect x="123.346" y="77.188" width="7.929" height="8.196" style="fill: rgb(213, 190, 111);"/>
  <path d="M 154.346 60.795 L 37.894 60.795 L 37.894 189.205 L 162.107 189.205 L 162.107 60.795 Z M 123.927 68.991 L 139.203 68.991 L 139.203 133.652 L 116.298 133.652 L 116.298 68.991 Z M 69.309 68.991 L 84.584 68.991 L 84.584 133.652 L 61.68 133.652 L 61.68 68.991 Z M 155.06 166.137 L 155.06 181.919 L 46.703 181.919 L 46.703 158.241 L 53.751 158.241 L 53.751 173.723 L 147.131 173.723 L 147.131 158.241 L 155.06 158.241 Z M 77.537 165.527 L 61.68 165.527 L 61.68 157.33 L 77.537 157.33 Z M 123.346 157.33 L 139.203 157.33 L 139.203 165.527 L 123.346 165.527 Z M 155.06 76.987 L 155.06 149.134 L 116.298 149.134 L 116.298 165.527 L 84.584 165.527 L 84.584 149.134 L 45.823 149.134 L 45.823 68.991 L 53.751 68.991 L 53.751 140.937 L 92.513 140.937 L 92.513 68.991 L 108.37 68.991 L 108.37 140.937 L 147.131 140.937 L 147.131 68.991 L 155.06 68.991 Z" style="fill: rgb(213, 190, 111);"/>
</svg>