<?xml version="1.0" encoding="utf-8"?>
<svg version="1.1" x="0px" y="0px" viewBox="0 0 26 32.5" style="enable-background:new 0 0 26 26;" xmlns="http://www.w3.org/2000/svg">
  <rect x="11.834" y="11.589" width="2.331" height="1.165" style="fill: rgb(213, 190, 111);"/>
  <rect x="10.67" y="10.424" width="1.165" height="1.165" style="fill: rgb(213, 190, 111);"/>
  <rect x="7.174" y="9.258" width="3.496" height="1.165" style="fill: rgb(213, 190, 111);"/>
  <rect x="6.007" y="10.424" width="1.165" height="1.165" style="fill: rgb(213, 190, 111);"/>
  <rect x="4.842" y="11.589" width="1.165" height="4.662" style="fill: rgb(213, 190, 111);"/>
  <rect x="6.007" y="16.251" width="1.165" height="1.165" style="fill: rgb(213, 190, 111);"/>
  <rect x="7.174" y="17.415" width="1.165" height="1.165" style="fill: rgb(213, 190, 111);"/>
  <rect x="8.338" y="18.581" width="1.165" height="1.165" style="fill: rgb(213, 190, 111);"/>
  <rect x="9.505" y="19.747" width="1.165" height="1.165" style="fill: rgb(213, 190, 111);"/>
  <rect x="10.67" y="20.911" width="1.165" height="1.165" style="fill: rgb(213, 190, 111);"/>
  <polygon points="11.835 22.077 11.835 23.243 13.001 23.243 14.166 23.243 14.166 22.077 13.001 22.077" style="fill: rgb(213, 190, 111);"/>
  <rect x="14.166" y="10.424" width="1.165" height="1.165" style="fill: rgb(213, 190, 111);"/>
  <rect x="15.331" y="9.258" width="3.496" height="1.165" style="fill: rgb(213, 190, 111);"/>
  <rect x="18.828" y="10.424" width="1.165" height="1.165" style="fill: rgb(213, 190, 111);"/>
  <rect x="19.992" y="11.589" width="1.165" height="4.662" style="fill: rgb(213, 190, 111);"/>
  <rect x="18.828" y="16.251" width="1.165" height="1.165" style="fill: rgb(213, 190, 111);"/>
  <rect x="17.662" y="17.415" width="1.165" height="1.165" style="fill: rgb(213, 190, 111);"/>
  <rect x="16.496" y="18.581" width="1.165" height="1.165" style="fill: rgb(213, 190, 111);"/>
  <rect x="15.331" y="19.747" width="1.165" height="1.165" style="fill: rgb(213, 190, 111);"/>
  <rect x="14.166" y="20.911" width="1.165" height="1.165" style="fill: rgb(213, 190, 111);"/>
  <text x="0" y="41" fill="#000000" font-size="5px" font-weight="bold" font-family="'Helvetica Neue', Helvetica, Arial-Unicode, Arial, Sans-serif" style="white-space: pre;">Created by Yafet bouchagra</text>
  <text x="0" y="46" fill="#000000" font-size="5px" font-weight="bold" font-family="'Helvetica Neue', Helvetica, Arial-Unicode, Arial, Sans-serif" style="white-space: pre;">from the Noun Project</text>
</svg>