<?xml version="1.0" encoding="utf-8"?>
<svg data-name="Calque 1" viewBox="0 0 200 250" x="0px" y="0px" xmlns="http://www.w3.org/2000/svg">
  <rect x="140" y="112" width="9" height="9" style="fill: rgb(213, 190, 111);"/>
  <rect x="148" y="121" width="9" height="9" style="fill: rgb(213, 190, 111);"/>
  <rect x="131" y="68" width="9" height="9" style="fill: rgb(213, 190, 111);"/>
  <rect x="140" y="59" width="9" height="9" style="fill: rgb(213, 190, 111);"/>
  <rect x="148" y="68" width="9" height="9" style="fill: rgb(213, 190, 111);"/>
  <rect x="157" y="76" width="9" height="9" style="fill: rgb(213, 190, 111);"/>
  <rect x="148" y="85" width="9" height="9" style="fill: rgb(213, 190, 111);"/>
  <rect x="140" y="94" width="9" height="9" style="fill: rgb(213, 190, 111);"/>
  <polygon points="87 76 87 85 96 85 96 94 105 94 105 85 105 76 96 76 87 76" style="fill: rgb(213, 190, 111);"/>
  <polygon points="113 77 122 77 122 68 113 68 104 68 104 77 113 77" style="fill: rgb(213, 190, 111);"/>
  <polygon points="78 77 87 77 87 68 95.25 68 104 68 104 59 95.25 59 86.5 59 77.75 59 69 59 69 68 78 68 78 77" style="fill: rgb(213, 190, 111);"/>
  <polygon points="52 147.5 52 138.75 52 130 43 130 43 138.75 43 147.5 43 156.25 43 165 52 165 52 156.25 52 147.5" style="fill: rgb(213, 190, 111);"/>
  <rect x="51" y="165" width="9" height="9" style="fill: rgb(213, 190, 111);"/>
  <polygon points="69 173 60 173 60 182 69 182 78 182 78 173 69 173" style="fill: rgb(213, 190, 111);"/>
  <polygon points="113.33 182 104.5 182 95.66 182 86.83 182 78 182 78 191 86.83 191 95.66 191 104.5 191 113.33 191 122.17 191 131 191 131 182 122.17 182 113.33 182" style="fill: rgb(213, 190, 111);"/>
  <polygon points="131 173 131 182 140 182 149 182 149 173 140 173 131 173" style="fill: rgb(213, 190, 111);"/>
  <rect x="148" y="165" width="9" height="9" style="fill: rgb(213, 190, 111);"/>
  <polygon points="157 147.5 157 156.25 157 165 166 165 166 156.25 166 147.5 166 138.75 166 130 157 130 157 138.75 157 147.5" style="fill: rgb(213, 190, 111);"/>
  <rect x="51" y="121" width="9" height="9" style="fill: rgb(213, 190, 111);"/>
  <polygon points="131 103 131 94.64 131 85.82 131 77 122 77 122 85.67 122 94.33 122 103 113.2 103 104.4 103 95.6 103 86.8 103 78 103 78 94 78 85 69 85 69 94 52 94 52 85 52 76 43 76 34 76 34 85 34 94 43 94 43 103 34 103 34 112 34 121 43 121 52 121 52 112 60 112 60 121 69 121 69 112 78 112 78 121 86.83 121 122.17 121 131 121 131 112 140 112 140 103 131 103" style="fill: rgb(213, 190, 111);"/>
  <polygon points="69 67 60 67 60 76 60 85 69 85 69 76 69 67" style="fill: rgb(213, 190, 111);"/>
</svg>