<?xml version="1.0" encoding="utf-8"?>
<svg data-name="Calque 1" viewBox="0 0 200 250" x="0px" y="0px" xmlns="http://www.w3.org/2000/svg">
  <rect x="140" y="87" width="9" height="9"/>
  <rect x="148" y="96" width="9" height="9"/>
  <rect x="131" y="43" width="9" height="9"/>
  <rect x="140" y="34" width="9" height="9"/>
  <rect x="148" y="43" width="9" height="9"/>
  <rect x="157" y="51" width="9" height="9"/>
  <rect x="148" y="60" width="9" height="9"/>
  <rect x="140" y="69" width="9" height="9"/>
  <polygon points="87 51 87 60 96 60 96 69 105 69 105 60 105 51 96 51 87 51"/>
  <polygon points="113 52 122 52 122 43 113 43 104 43 104 52 113 52"/>
  <polygon points="78 52 87 52 87 43 95.25 43 104 43 104 34 95.25 34 86.5 34 77.75 34 69 34 69 43 78 43 78 52"/>
  <polygon points="52 122.5 52 113.75 52 105 43 105 43 113.75 43 122.5 43 131.25 43 140 52 140 52 131.25 52 122.5"/>
  <rect x="51" y="140" width="9" height="9"/>
  <polygon points="69 148 60 148 60 157 69 157 78 157 78 148 69 148"/>
  <polygon points="113.33 157 104.5 157 95.66 157 86.83 157 78 157 78 166 86.83 166 95.66 166 104.5 166 113.33 166 122.17 166 131 166 131 157 122.17 157 113.33 157"/>
  <polygon points="131 148 131 157 140 157 149 157 149 148 140 148 131 148"/>
  <rect x="148" y="140" width="9" height="9"/>
  <polygon points="157 122.5 157 131.25 157 140 166 140 166 131.25 166 122.5 166 113.75 166 105 157 105 157 113.75 157 122.5"/>
  <rect x="51" y="96" width="9" height="9"/>
  <polygon points="131 78 131 69.64 131 60.82 131 52 122 52 122 60.67 122 69.33 122 78 113.2 78 104.4 78 95.6 78 86.8 78 78 78 78 69 78 60 69 60 69 69 52 69 52 60 52 51 43 51 34 51 34 60 34 69 43 69 43 78 34 78 34 87 34 96 43 96 52 96 52 87 60 87 60 96 69 96 69 87 78 87 78 96 86.83 96 122.17 96 131 96 131 87 140 87 140 78 131 78"/>
  <polygon points="69 42 60 42 60 51 60 60 69 60 69 51 69 42"/>
</svg>