<?xml version="1.0" encoding="utf-8"?>
<svg version="1.1" x="0px" y="0px" viewBox="0 0 100 125" enable-background="new 0 0 100 100" xmlns="http://www.w3.org/2000/svg">
  <path d="M 37.976 84.197 L 37.976 79.372 L 42.787 79.372 L 42.787 84.197 L 37.976 84.197 Z M 52.403 79.371 L 47.59 79.371 L 47.59 84.196 L 52.403 84.196 L 52.403 79.371 Z M 62.018 79.371 L 57.214 79.371 L 57.214 84.196 L 62.018 84.196 L 62.018 79.371 Z M 62.018 84.197 L 62.018 89.023 L 66.83 89.023 L 66.83 93.839 L 71.642 93.839 L 71.642 79.371 L 66.83 79.371 L 66.83 84.196 L 62.018 84.196 Z M 62.018 89.023 L 57.214 89.023 L 57.214 93.839 L 52.403 93.839 L 52.403 89.023 L 47.59 89.023 L 47.59 93.839 L 42.787 93.839 L 42.787 89.023 L 37.976 89.023 L 37.976 93.839 L 33.163 93.839 L 33.163 98.665 L 66.831 98.665 L 66.831 93.839 L 62.019 93.839 L 62.019 89.023 Z M 57.214 89.023 L 57.214 84.197 L 52.403 84.197 L 52.403 89.023 L 57.214 89.023 Z M 47.589 89.023 L 47.589 84.197 L 42.786 84.197 L 42.786 89.023 L 47.589 89.023 Z M 37.976 89.023 L 37.976 84.197 L 33.163 84.197 L 33.163 79.372 L 28.359 79.372 L 28.359 93.839 L 33.163 93.839 L 33.163 89.023 L 37.976 89.023 Z M 62.018 79.371 L 66.83 79.371 L 66.83 69.729 L 62.018 69.729 L 62.018 79.371 Z M 37.976 69.729 L 33.163 69.729 L 33.163 79.371 L 37.976 79.371 L 37.976 69.729 Z M 62.018 69.729 L 62.018 64.911 L 57.214 64.911 L 57.214 69.729 L 62.018 69.729 Z M 42.787 64.912 L 37.976 64.912 L 37.976 69.73 L 42.787 69.73 L 42.787 64.912 Z M 52.403 64.912 L 57.214 64.912 L 57.214 60.087 L 52.403 60.087 L 52.403 64.912 Z M 47.589 60.086 L 42.786 60.086 L 42.786 64.911 L 47.589 64.911 L 47.589 60.086 Z M 57.214 60.086 L 62.018 60.086 L 62.018 55.26 L 57.214 55.26 L 57.214 60.086 Z M 37.976 55.261 L 37.976 60.087 L 42.787 60.087 L 42.787 55.261 L 37.976 55.261 Z M 62.018 55.261 L 66.83 55.261 L 66.83 45.619 L 62.018 45.619 L 62.018 55.261 Z M 37.976 45.619 L 33.163 45.619 L 33.163 55.261 L 37.976 55.261 L 37.976 45.619 Z M 66.83 31.151 L 66.83 45.619 L 71.642 45.619 L 71.642 31.151 L 66.83 31.151 Z M 33.162 31.151 L 28.358 31.151 L 28.358 45.619 L 33.162 45.619 L 33.162 31.151 Z M 66.83 31.151 L 66.83 26.334 L 33.162 26.334 L 33.162 31.151 L 66.83 31.151 Z" style="fill: rgb(213, 190, 111);"/>
</svg>