<?xml version="1.0" encoding="utf-8"?>
<svg version="1.1" x="0px" y="0px" viewBox="0 0 100 125" enable-background="new 0 0 100 100" xmlns="http://www.w3.org/2000/svg">
  <path d="M 52.69 59.81 L 52.69 54.44 L 58.06 54.44 L 58.06 59.81 L 52.69 59.81 Z M 47.32 65.19 L 52.69 65.19 L 52.69 59.81 L 47.32 59.81 L 47.32 65.19 Z M 41.94 70.56 L 47.32 70.56 L 47.32 65.19 L 41.94 65.19 L 41.94 70.56 Z M 41.94 70.56 L 36.56 70.56 L 36.56 65.19 L 25.82 65.19 L 25.82 70.56 L 31.19 70.56 L 31.19 75.94 L 25.82 75.94 L 25.82 81.31 L 20.44 81.31 L 20.44 86.69 L 15.06 86.69 L 15.06 97.44 L 25.82 97.44 L 25.82 92.06 L 31.19 92.06 L 31.19 86.69 L 36.56 86.69 L 36.56 81.31 L 41.94 81.31 L 41.94 86.69 L 47.32 86.69 L 47.32 75.94 L 41.94 75.94 L 41.94 70.56 Z M 68.82 27.56 L 68.82 32.94 L 79.56 32.94 L 79.56 43.69 L 84.94 43.69 L 84.94 27.56 L 68.82 27.56 Z M 68.82 32.94 L 63.44 32.94 L 63.44 38.31 L 68.82 38.31 L 68.82 32.94 Z M 74.19 49.06 L 79.56 49.06 L 79.56 43.69 L 74.19 43.69 L 74.19 49.06 Z M 68.82 54.44 L 74.19 54.44 L 74.19 49.06 L 68.82 49.06 L 68.82 54.44 Z M 63.44 59.81 L 68.82 59.81 L 68.82 54.44 L 63.44 54.44 L 63.44 59.81 Z M 58.06 65.19 L 63.44 65.19 L 63.44 59.81 L 58.06 59.81 L 58.06 65.19 Z M 52.69 70.56 L 58.06 70.56 L 58.06 65.19 L 52.69 65.19 L 52.69 70.56 Z M 47.32 75.94 L 52.69 75.94 L 52.69 70.56 L 47.32 70.56 L 47.32 75.94 Z M 63.44 38.31 L 58.06 38.31 L 58.06 43.69 L 63.44 43.69 L 63.44 38.31 Z M 58.06 43.69 L 52.69 43.69 L 52.69 49.06 L 58.06 49.06 L 58.06 43.69 Z M 52.69 49.06 L 47.32 49.06 L 47.32 54.44 L 52.69 54.44 L 52.69 49.06 Z M 47.32 54.44 L 41.94 54.44 L 41.94 59.81 L 47.32 59.81 L 47.32 54.44 Z M 41.94 59.81 L 36.56 59.81 L 36.56 65.19 L 41.94 65.19 L 41.94 59.81 Z M 52.69 92.06 L 52.69 86.69 L 47.32 86.69 L 47.32 92.06 L 52.69 92.06 Z M 20.44 59.81 L 20.44 65.19 L 25.82 65.19 L 25.82 59.81 L 20.44 59.81 Z" style="fill: rgb(213, 190, 111);"/>
</svg>